<svg xmlns="http://www.w3.org/2000/svg" width="91" height="91" id="french-fries"><path d="M20.89 90.871h42.39c3.681 0 6.69-2.927 6.825-6.577l11.941-55.591h-8.622l3.185-9.054a2.18 2.18 0 0 0-1.29-2.766l-5.976-2.257a2.19 2.19 0 0 0-2.809 1.257L60.38 31.866l2.885-13.92a2.179 2.179 0 0 0-1.786-2.598l-6.55-1.066.647-11.091c.033-.6-.18-1.188-.593-1.626a2.183 2.183 0 0 0-1.588-.686h-8.09a2.182 2.182 0 0 0-2.18 2.047l-.284 4.553h-5.889a2.18 2.18 0 0 0-1.553.65 2.183 2.183 0 0 0-.555.998l-.779-6.645A2.19 2.19 0 0 0 31.683.563l-6.041.595a2.188 2.188 0 0 0-1.948 2.478l1.541 10.953a2.136 2.136 0 0 0-.522-.333 2.182 2.182 0 0 0-1.739-.002l-6.78 2.939a2.18 2.18 0 0 0-1.213 2.661l2.797 8.849H8.614L20.89 90.871zm48.94-71.394 1.95.736-8.031 22.825a21.807 21.807 0 0 1-3.867 2.28l9.948-25.841zm-14.579-.721 3.276.534-5.855 28.242c-.999.183-1.967.316-2.888.414l5.467-29.19zm-9.34 9.59 1.445-23.1h3.725L50.057 22.76l-4.308 23.003.162-17.417zm-4.215-16.5-.336 36.153a46.587 46.587 0 0 1-1.708-.193l-.487-35.959h2.531zM29.979 5.12 33.8 37.67l-1.503-4.209-3.96-28.179 1.642-.162zM22.57 19.189l9.523 26.702c-1.806-.71-3.577-1.632-5.198-2.831l-7.16-22.643 2.835-1.228zm22.737 33.359c15.974 0 26.918-7.242 29.679-19.478h1.656L65.789 83.58l-.047.46a2.465 2.465 0 0 1-2.462 2.463h-38.8L13.926 33.069h1.701c2.766 12.237 13.712 19.479 29.68 19.479z"></path><path d="M45.307 82.392c7.144 0 12.955-5.813 12.955-12.958 0-7.143-5.812-12.956-12.955-12.956-7.145 0-12.957 5.813-12.957 12.956s5.812 12.958 12.957 12.958zm0-21.546c4.737 0 8.589 3.851 8.589 8.588s-3.852 8.59-8.589 8.59-8.59-3.853-8.59-8.59 3.853-8.588 8.59-8.588z"></path></svg>