<svg xmlns="http://www.w3.org/2000/svg" width="256" height="256" viewBox="0 0 100 100"><rect width="100" height="100" rx="20" fill="#ffffff"></rect><path d="M27.23 31.19Q27.23 34.70 29.26 37.22Q31.28 39.74 34.30 41.41Q37.31 43.07 42.53 45.32L42.53 45.32Q48.74 48.02 52.48 50.23Q56.21 52.43 58.87 56.08Q61.52 59.72 61.52 65.12L61.52 65.12Q61.52 70.07 58.95 73.98Q56.39 77.90 51.48 80.15Q46.58 82.40 39.83 82.40L39.83 82.40Q35.96 82.40 31.82 81.36Q27.68 80.33 24.53 78.53L24.53 78.53L24.89 81.68L18.95 81.68L18.41 62.15L23.18 62.15Q23.54 69.98 28.22 74.12Q32.90 78.26 40.19 78.26L40.19 78.26Q45.50 78.26 49.01 75.34Q52.52 72.41 52.52 67.19L52.52 67.19Q52.52 63.41 50.45 60.76Q48.38 58.10 45.32 56.34Q42.26 54.59 36.95 52.25L36.95 52.25Q31.01 49.64 27.32 47.48Q23.63 45.32 21.11 41.77Q18.59 38.21 18.59 32.90L18.59 32.90Q18.59 29.30 20.30 25.66Q22.01 22.01 26.24 19.45Q30.47 16.88 37.49 16.88L37.49 16.88Q41.18 16.88 45.14 17.78Q49.10 18.68 52.43 20.75L52.43 20.75L52.16 17.60L58.01 17.60L58.01 37.76L53.51 37.76Q53.15 30.56 49.19 25.70Q45.23 20.84 38.12 20.84L38.12 20.84Q32.99 20.84 30.11 23.77Q27.23 26.69 27.23 31.19L27.23 31.19ZM75.92 70.43Q78.26 70.43 79.93 72.32Q81.59 74.21 81.59 76.82L81.59 76.82Q81.59 79.43 79.84 81.28Q78.08 83.12 75.83 83.12L75.83 83.12Q73.58 83.12 71.87 81.28Q70.16 79.43 70.16 76.82L70.16 76.82Q70.16 74.21 71.92 72.32Q73.67 70.43 75.92 70.43L75.92 70.43Z" fill="#000000"></path></svg>