<!DOCTYPE svg PUBLIC "-//W3C//DTD SVG 1.1//EN" "http://www.w3.org/Graphics/SVG/1.1/DTD/svg11.dtd">
<!-- Uploaded to: SVG Repo, www.svgrepo.com, Transformed by: SVG Repo Mixer Tools -->
<svg version="1.1" id="Uploaded to svgrepo.com" xmlns="http://www.w3.org/2000/svg" xmlns:xlink="http://www.w3.org/1999/xlink" width="800px" height="800px" viewBox="0 0 32 32" xml:space="preserve" fill="#ffffff" stroke="#ffffff" stroke-width="0.32">
<g id="SVGRepo_bgCarrier" stroke-width="0"/>
<g id="SVGRepo_tracerCarrier" stroke-linecap="round" stroke-linejoin="round"/>
<g id="SVGRepo_iconCarrier"> <style type="text/css"> .feather_een{fill:#ffffff;} </style> <path class="feather_een" d="M8.5,10h-2C6.224,10,6,9.776,6,9.5v0C6,9.224,6.224,9,6.5,9h2C8.776,9,9,9.224,9,9.5v0 C9,9.776,8.776,10,8.5,10z M7,11.5L7,11.5C7,11.776,7.224,12,7.5,12h2c0.276,0,0.5-0.224,0.5-0.5v0c0-0.276-0.224-0.5-0.5-0.5h-2 C7.224,11,7,11.224,7,11.5z M7.5,18h2c0.276,0,0.5-0.224,0.5-0.5l0,0c0-0.276-0.224-0.5-0.5-0.5h-2C7.224,17,7,17.224,7,17.5l0,0 C7,17.776,7.224,18,7.5,18z M6.5,20h2C8.776,20,9,19.776,9,19.5l0,0C9,19.224,8.776,19,8.5,19h-2C6.224,19,6,19.224,6,19.5l0,0 C6,19.776,6.224,20,6.5,20z M22,13.5L22,13.5c0,0.276-0.224,0.5-0.5,0.5h-13C8.224,14,8,13.776,8,13.5v0C8,13.224,8.224,13,8.5,13 h13C21.776,13,22,13.224,22,13.5z M8.5,16h13c0.276,0,0.5-0.224,0.5-0.5v0c0-0.276-0.224-0.5-0.5-0.5h-13C8.224,15,8,15.224,8,15.5 v0C8,15.776,8.224,16,8.5,16z M16.5,12h-5c-0.276,0-0.5-0.224-0.5-0.5v0c0-0.276,0.224-0.5,0.5-0.5h5c0.276,0,0.5,0.224,0.5,0.5v0 C17,11.776,16.776,12,16.5,12z M20.5,9h-10C10.224,9,10,9.224,10,9.5v0c0,0.276,0.224,0.5,0.5,0.5h10c0.276,0,0.5-0.224,0.5-0.5v0 C21,9.224,20.776,9,20.5,9z M29,4H3C1.343,4,0,5.343,0,7v16c0,1.657,1.343,3,3,3h9v3h-1.5c-0.276,0-0.5,0.224-0.5,0.5l0,0 c0,0.276,0.224,0.5,0.5,0.5h11c0.276,0,0.5-0.224,0.5-0.5l0,0c0-0.276-0.224-0.5-0.5-0.5H20v-3h9c1.657,0,3-1.343,3-3V7 C32,5.343,30.657,4,29,4z M19,29h-6v-3h6V29z M31,23c0,1.105-0.895,2-2,2H3c-1.105,0-2-0.895-2-2V7c0-1.105,0.895-2,2-2h26 c1.105,0,2,0.895,2,2V23z"/> </g>
</svg>